<svg version="1.1" viewBox="0.0 0.0 800.0 200.0" fill="none" stroke="none" stroke-linecap="square" stroke-miterlimit="10" xmlns:xlink="http://www.w3.org/1999/xlink" xmlns="http://www.w3.org/2000/svg"><clipPath id="g3cb7b3b1101_0_0.0"><path d="m0 0l800.0 0l0 200.0l-800.0 0l0 -200.0z" clip-rule="nonzero"/></clipPath><g clip-path="url(#g3cb7b3b1101_0_0.0)"><path fill="#000000" fill-opacity="0.0" d="m0 0l800.0 0l0 200.0l-800.0 0z" fill-rule="evenodd"/><path fill="#000000" fill-opacity="0.0" d="m0 -0.010498688l800.0 0l0 200.0l-800.0 0z" fill-rule="evenodd"/><path fill="#000000" d="m120.07205 147.92888q-8.265625 0 -14.28125 -2.5625q-6.015625 -2.5625 -10.046875 -7.046875l-5.953125 9.03125l-2.171875 0l0 -26.3125l2.5 0q1.015625 5.25 3.25 9.671875q2.25 4.421875 5.796875 7.6875q3.5625 3.25 8.453125 5.078125q4.890625 1.828125 11.296875 1.828125q6.78125 0 11.734375 -2.296875q4.96875 -2.3125 7.65625 -6.6875q2.6875 -4.390625 2.6875 -10.734375q0 -5.625 -2.75 -9.5q-2.75 -3.875 -7.328125 -6.71875q-4.578125 -2.84375 -10.015625 -5.25q-5.4375 -2.40625 -10.890625 -5.015625q-5.4375 -2.625 -10.015625 -6.109375q-4.5625 -3.5 -7.328125 -8.453125q-2.75 -4.96875 -2.75 -12.0625q0 -7.109375 3.578125 -12.421875q3.59375 -5.3125 9.640625 -8.28125q6.046875 -2.984375 13.34375 -2.984375q6.34375 0 11.65625 2.015625q5.3125 2.015625 9.203125 6.109375l5.953125 -8.125l2.125 0l0 26.3125l-2.4375 0q-1.28125 -8.0 -4.8125 -13.21875q-3.515625 -5.21875 -8.765625 -7.75q-5.234375 -2.53125 -11.703125 -2.53125q-9.15625 0 -13.859375 4.328125q-4.703125 4.3125 -4.703125 11.421875q0 5.0625 2.71875 8.578125q2.71875 3.515625 7.203125 6.171875q4.484375 2.65625 9.859375 5.03125q5.375 2.359375 10.75 5.078125q5.375 2.71875 9.84375 6.4375q4.484375 3.703125 7.203125 8.984375q2.734375 5.28125 2.734375 12.84375q0 8.3125 -3.59375 14.5q-3.578125 6.171875 -10.171875 9.5625q-6.59375 3.390625 -15.609375 3.390625zm87.3535 -0.578125q-3.015625 0 -5.546875 -1.0625q-2.515625 -1.046875 -4.0625 -3.515625q-1.53125 -2.46875 -1.53125 -6.625l0 -29.046875q0 -4.609375 -0.765625 -8.828125q-0.765625 -4.234375 -3.234375 -6.921875q-2.453125 -2.6875 -7.578125 -2.6875q-2.875 0 -5.984375 0.640625q-3.109375 0.640625 -5.765625 1.953125q-2.65625 1.3125 -4.328125 3.296875q-1.65625 1.984375 -1.65625 4.671875l-3.0 0q0 -3.265625 2.140625 -5.15625q2.140625 -1.890625 4.703125 -1.890625q2.75 0 5.015625 1.765625q2.28125 1.75 2.28125 5.015625q0 3.84375 -2.34375 5.578125q-2.328125 1.71875 -4.953125 1.71875q-2.9375 0 -4.953125 -1.78125q-2.015625 -1.796875 -2.015625 -5.25q0 -3.015625 1.9375 -5.40625q1.953125 -2.40625 5.25 -4.09375q3.296875 -1.703125 7.421875 -2.625q4.140625 -0.9375 8.484375 -0.9375q8.828125 0 13.21875 3.078125q4.390625 3.0625 5.859375 7.875q1.46875 4.796875 1.46875 9.984375l0 31.484375q0 2.109375 0.734375 3.578125q0.734375 1.46875 3.109375 1.46875q1.65625 0 3.671875 -1.375q2.015625 -1.375 3.109375 -3.484375l1.21875 2.3125q-1.671875 2.609375 -4.71875 4.4375q-3.03125 1.828125 -7.1875 1.828125zm-29.828125 0q-8.3125 0 -13.28125 -4.25q-4.953125 -4.265625 -4.953125 -11.5625q0 -8.578125 7.359375 -13.46875q7.359375 -4.890625 20.984375 -4.890625l14.53125 0l0 2.171875l-14.53125 0q-5.625 0 -9.078125 2.375q-3.453125 2.359375 -5.0625 5.890625q-1.59375 3.515625 -1.59375 7.03125q0 3.203125 0.984375 6.1875q1.0 2.96875 3.140625 4.859375q2.140625 1.875 5.46875 1.875q3.59375 0 6.953125 -2.296875q3.359375 -2.3125 5.5625 -6.984375q2.203125 -4.671875 2.203125 -11.640625l1.46875 0q0 7.296875 -2.34375 12.875q-2.328125 5.5625 -6.8125 8.703125q-4.46875 3.125 -11.0 3.125zm62.27202 -82.8125q-3.140625 0 -5.40625 -2.296875q-2.265625 -2.3125 -2.265625 -5.453125q0 -3.203125 2.265625 -5.4375q2.265625 -2.234375 5.40625 -2.234375q3.203125 0 5.4375 2.234375q2.25 2.234375 2.25 5.4375q0 3.140625 -2.25 5.453125q-2.234375 2.296875 -5.4375 2.296875zm5.703125 22.65625l0 56.375l8.375 0l0 2.5l-28.21875 0l0 -2.5l8.3125 0l0 -53.890625l-8.3125 0l0 -2.484375l19.84375 0zm37.877686 0l0 56.375l8.265625 0l0 2.5l-27.84375 0l0 -2.5l8.390625 0l0 -53.890625l-8.390625 0l0 -2.484375l19.578125 0zm39.046875 17.984375l0 38.390625l8.390625 0l0 2.5l-27.96875 0l0 -2.5l8.3125 0l0 -36.46875q0 -5.390625 -0.484375 -9.453125q-0.46875 -4.0625 -2.140625 -6.328125q-1.65625 -2.28125 -5.1875 -2.28125q-5.171875 0 -8.953125 2.828125q-3.78125 2.8125 -6.21875 7.203125q-2.421875 4.375 -3.609375 9.25q-1.1875 4.859375 -1.1875 9.015625l-1.59375 0.3125q0 -4.21875 1.109375 -9.625q1.125 -5.40625 3.75 -10.421875q2.625 -5.03125 7.109375 -8.328125q4.484375 -3.296875 11.265625 -3.296875q7.421875 0 11.125 2.46875q3.71875 2.453125 5.0 6.8125q1.28125 4.34375 1.28125 9.921875zm37.317627 41.78125q-5.25 0 -7.90625 -2.328125q-2.65625 -2.34375 -3.59375 -5.828125q-0.921875 -3.484375 -0.921875 -7.0l0 -57.421875q2.875 0 6.203125 -1.203125q3.328125 -1.21875 5.25 -2.625l0 64.25q0 4.796875 1.15625 6.40625q1.15625 1.59375 3.90625 1.59375q3.0 0 5.78125 -2.6875q2.796875 -2.6875 4.515625 -6.078125l2.109375 1.34375q-2.5625 5.1875 -6.5 8.390625q-3.921875 3.1875 -10.0 3.1875zm-21.0 -57.28125l0 -2.484375l33.734375 0l0 2.484375l-33.734375 0zm45.50644 57.671875l0 -18.6875l2.5625 0q0.703125 4.34375 3.484375 8.0q2.78125 3.640625 6.875 5.828125q4.09375 2.171875 8.84375 2.171875q3.578125 0 6.78125 -1.15625q3.203125 -1.15625 5.171875 -3.546875q1.984375 -2.40625 1.984375 -6.109375q0 -4.03125 -2.46875 -6.390625q-2.453125 -2.375 -6.296875 -3.875q-3.828125 -1.515625 -8.1875 -2.953125q-4.34375 -1.4375 -8.1875 -3.484375q-3.84375 -2.046875 -6.3125 -5.46875q-2.453125 -3.4375 -2.453125 -9.0q0 -4.09375 1.84375 -7.90625q1.859375 -3.8125 5.734375 -6.265625q3.875 -2.46875 9.890625 -2.46875q4.34375 0 7.984375 1.40625q3.65625 1.40625 6.40625 3.78125l4.8125 -5.25l2.234375 0l0 17.859375l-2.5625 0q-0.3125 -3.78125 -2.78125 -7.234375q-2.46875 -3.453125 -6.5625 -5.6875q-4.09375 -2.25 -9.40625 -2.25q-3.0 0 -5.5625 1.0625q-2.5625 1.046875 -4.078125 3.03125q-1.5 1.984375 -1.5 4.734375q0 3.515625 2.5625 5.734375q2.5625 2.203125 6.625 3.8125q4.0625 1.59375 8.609375 3.171875q4.546875 1.5625 8.609375 3.765625q4.0625 2.203125 6.625 5.625q2.5625 3.421875 2.5625 8.734375q0 5.703125 -2.796875 10.0q-2.78125 4.28125 -7.515625 6.65625q-4.734375 2.359375 -10.75 2.359375q-4.421875 0 -8.390625 -1.53125q-3.953125 -1.546875 -7.03125 -4.171875l-5.1875 5.703125l-2.171875 0zm143.80124 -97.28125l0 2.5l-11.515625 0l0 91.0l11.515625 0l0 2.5l-36.46872 0l0 -2.5l12.796875 0l0 -43.578125l-42.171875 0l0 43.578125l12.734375 0l0 2.5l-36.484375 0l0 -2.5l11.515625 0l0 -91.0l-11.515625 0l0 -2.5l36.484375 0l0 2.5l-12.734375 0l0 44.859375l42.171875 0l0 -44.859375l-12.796875 0l0 -2.5l36.46872 0zm39.614014 97.28125q-8.125 0 -14.71875 -3.671875q-6.578125 -3.6875 -10.453125 -10.5625q-3.875 -6.890625 -3.875 -16.484375q0 -9.609375 3.640625 -16.453125q3.65625 -6.84375 10.046875 -10.515625q6.40625 -3.6875 14.59375 -3.6875q9.28125 0 14.8125 3.6875q5.546875 3.671875 8.0 9.6875q2.46875 6.015625 2.46875 12.984375l-44.921875 0l0 -2.484375l31.359375 0q0 -3.203125 -0.359375 -6.90625q-0.34375 -3.71875 -1.46875 -7.015625q-1.125 -3.296875 -3.5 -5.40625q-2.359375 -2.109375 -6.390625 -2.109375q-4.609375 0 -7.546875 2.296875q-2.9375 2.296875 -4.578125 6.296875q-1.625 4.0 -2.296875 9.0625q-0.671875 5.0625 -0.671875 10.5625q0 5.5 0.734375 10.53125q0.734375 5.015625 2.546875 8.953125q1.828125 3.9375 5.0625 6.21875q3.234375 2.265625 8.234375 2.265625q8.5625 0 14.03125 -4.3125q5.484375 -4.328125 7.84375 -10.921875l2.890625 0q-2.5 7.75 -8.78125 12.875q-6.265625 5.109375 -16.703125 5.109375zm58.445312 -97.28125l0 93.5l10.875 0l0 2.5l-33.28125 0l0 -2.5l10.9375 0l0 -91.0l-10.9375 0l0 -2.5l22.40625 0zm20.217651 128.0l0 -2.5l8.390625 0l0 -85.890625l-8.390625 0l0 -2.484375l19.84375 0l0 18.6875q2.109375 -9.15625 7.453125 -14.5q5.34375 -5.34375 13.09375 -5.34375q6.71875 0 12.734375 3.65625q6.015625 3.640625 9.78125 10.484375q3.78125 6.84375 3.78125 16.453125q0 9.59375 -3.78125 16.484375q-3.765625 6.875 -9.78125 10.5625q-6.015625 3.671875 -12.734375 3.671875q-7.75 0 -13.09375 -5.40625q-5.34375 -5.40625 -7.453125 -14.5l0 48.125l8.3125 0l0 2.5l-28.15625 0zm38.078125 -34.171875q5.0 0 8.453125 -3.234375q3.453125 -3.234375 5.234375 -9.34375q1.796875 -6.109375 1.796875 -14.6875q0 -8.578125 -1.796875 -14.65625q-1.78125 -6.078125 -5.234375 -9.28125q-3.453125 -3.203125 -8.453125 -3.203125q-4.796875 0 -8.96875 3.171875q-4.15625 3.171875 -6.71875 9.25q-2.546875 6.078125 -2.546875 14.71875q0 8.640625 2.546875 14.75q2.5625 6.109375 6.71875 9.3125q4.171875 3.203125 8.96875 3.203125z" fill-rule="nonzero"/><path fill="#000000" fill-opacity="0.0" d="m380.58432 64.1642l0 0c0 -4.113865 12.028381 -7.4488144 26.86615 -7.4488144l0 0c14.837769 0 26.86615 3.3349495 26.86615 7.4488144l0 0c0 4.1138763 -12.028381 7.448822 -26.86615 7.448822l0 0c-14.837769 0 -26.86615 -3.3349457 -26.86615 -7.448822z" fill-rule="evenodd"/><path stroke="#000000" stroke-width="8.0" stroke-linejoin="round" stroke-linecap="butt" d="m380.58432 64.1642l0 0c0 -4.113865 12.028381 -7.4488144 26.86615 -7.4488144l0 0c14.837769 0 26.86615 3.3349495 26.86615 7.4488144l0 0c0 4.1138763 -12.028381 7.448822 -26.86615 7.448822l0 0c-14.837769 0 -26.86615 -3.3349457 -26.86615 -7.448822z" fill-rule="evenodd"/></g></svg>