<svg version="1.1" viewBox="0.0 0.0 960.0 960.0" fill="none" stroke="none" stroke-linecap="square" stroke-miterlimit="10" xmlns:xlink="http://www.w3.org/1999/xlink" xmlns="http://www.w3.org/2000/svg"><clipPath id="g3cb7b3b1101_0_0.0"><path d="m0 0l960.0 0l0 960.0l-960.0 0l0 -960.0z" clip-rule="nonzero"/></clipPath><g clip-path="url(#g3cb7b3b1101_0_0.0)"><path fill="#000000" fill-opacity="0.0" d="m0 0l960.0 0l0 960.0l-960.0 0z" fill-rule="evenodd"/><path fill="#000000" fill-opacity="0.0" d="m32.72441 427.322l894.55115 0l0 105.35434l-894.55115 0z" fill-rule="evenodd"/><path fill="#000000" d="m250.86403 519.4504q-6.796875 0 -11.75 -2.109375q-4.953125 -2.109375 -8.265625 -5.7968445l-4.90625 7.4218445l-1.78125 0l0 -21.640594l2.046875 0q0.84375 4.328125 2.6875 7.96875q1.84375 3.625 4.765625 6.3125q2.921875 2.6718445 6.953125 4.1874695q4.03125 1.5 9.296875 1.5q5.578125 0 9.656235 -1.890625q4.09375 -1.90625 6.296875 -5.5155945q2.21875 -3.609375 2.21875 -8.828125q0 -4.625 -2.265625 -7.8125q-2.265625 -3.1875 -6.03125 -5.53125q-3.765625 -2.34375 -8.249985 -4.3125q-4.46875 -1.984375 -8.953125 -4.140625q-4.46875 -2.15625 -8.234375 -5.03125q-3.765625 -2.875 -6.03125 -6.953125q-2.265625 -4.078125 -2.265625 -9.921875q0 -5.84375 2.953125 -10.21875q2.953125 -4.375 7.921875 -6.8125q4.984375 -2.453125 10.984375 -2.453125q5.21875 0 9.57811 1.65625q4.375 1.65625 7.59375 5.03125l4.890625 -6.6875l1.734375 0l0 21.640625l-2.0 0q-1.046875 -6.578125 -3.953125 -10.875q-2.890625 -4.296875 -7.21875 -6.375q-4.3124847 -2.078125 -9.624985 -2.078125q-7.53125 0 -11.40625 3.5625q-3.859375 3.546875 -3.859375 9.390625q0 4.171875 2.234375 7.0625q2.234375 2.890625 5.921875 5.078125q3.6875 2.1875 8.109375 4.140625q4.421875 1.9375 8.843735 4.1875q4.421875 2.234375 8.109375 5.296875q3.6875 3.046875 5.921875 7.390625q2.25 4.34375 2.25 10.5625q0 6.84375 -2.953125 11.921875q-2.953125 5.0780945 -8.375 7.8749695q-5.421875 2.796875 -12.843735 2.796875zm71.87666 -0.484375q-2.46875 0 -4.546875 -0.875q-2.078125 -0.859375 -3.34375 -2.875q-1.265625 -2.03125 -1.265625 -5.4530945l0 -23.921875q0 -3.78125 -0.640625 -7.25q-0.625 -3.484375 -2.65625 -5.6875q-2.03125 -2.21875 -6.234375 -2.21875q-2.375 0 -4.9375 0.53125q-2.546875 0.515625 -4.734375 1.59375q-2.1875 1.078125 -3.5625 2.71875q-1.359375 1.625 -1.359375 3.84375l-2.46875 0q0 -2.6875 1.765625 -4.234375q1.765625 -1.5625 3.859375 -1.5625q2.265625 0 4.140625 1.453125q1.875 1.4375 1.875 4.125q0 3.171875 -1.921875 4.59375q-1.921875 1.421875 -4.09375 1.421875q-2.421875 0 -4.078125 -1.46875q-1.65625 -1.484375 -1.65625 -4.328125q0 -2.484375 1.609375 -4.453125q1.609375 -1.96875 4.3125 -3.359375q2.71875 -1.40625 6.109375 -2.171875q3.40625 -0.765625 6.984375 -0.765625q7.265625 0 10.875 2.53125q3.609375 2.53125 4.8125 6.484375q1.21875 3.9375 1.21875 8.203125l0 25.921875q0 1.7343445 0.59375 2.9530945q0.609375 1.203125 2.5625 1.203125q1.375 0 3.03125 -1.125q1.65625 -1.140625 2.546875 -2.8749695l1.0 1.8905945q-1.359375 2.15625 -3.875 3.65625q-2.5 1.5 -5.921875 1.5zm-24.53125 0q-6.84375 0 -10.9375 -3.5q-4.078125 -3.4999695 -4.078125 -9.4999695q0 -7.0625 6.046875 -11.078125q6.0625 -4.03125 17.28125 -4.03125l11.953125 0l0 1.78125l-11.953125 0q-4.625 0 -7.46875 1.953125q-2.84375 1.953125 -4.171875 4.84375q-1.3125 2.890625 -1.3125 5.796875q0 2.625 0.8125 5.078125q0.828125 2.4530945 2.578125 4.0155945q1.765625 1.546875 4.515625 1.546875q2.9375 0 5.703125 -1.890625q2.765625 -1.90625 4.578125 -5.7499695q1.828125 -3.84375 1.828125 -9.59375l1.203125 0q0 6.015625 -1.921875 10.59375q-1.921875 4.5780945 -5.609375 7.1562195q-3.6875 2.578125 -9.046875 2.578125z" fill-rule="nonzero"/><path fill="#000000" d="m348.23355 455.91916q-2.390625 0 -4.125 -1.75q-1.71875 -1.75 -1.71875 -4.140625q0 -2.421875 1.71875 -4.125q1.734375 -1.703125 4.125 -1.703125q2.4375 0 4.140625 1.703125q1.703125 1.703125 1.703125 4.125q0 2.390625 -1.703125 4.140625q-1.703125 1.75 -4.140625 1.75zm4.328125 17.234375l0 42.87497l6.375 0l0 1.890625l-21.453125 0l0 -1.890625l6.3125 0l0 -40.984344l-6.3125 0l0 -1.890625l15.078125 0z" fill-rule="nonzero"/><path fill="#000000" d="m382.88022 469.46603l0 46.40622l6.796875 0l0 2.046875l-22.90625 0l0 -2.046875l6.90625 0l0 -44.34372l-6.90625 0l0 -2.0625l16.109375 0zm32.125 14.796875l0 31.609344l6.90625 0l0 2.046875l-23.015625 0l0 -2.046875l6.84375 0l0 -30.03122q0 -4.421875 -0.390625 -7.765625q-0.390625 -3.34375 -1.765625 -5.203125q-1.375 -1.875 -4.265625 -1.875q-4.265625 0 -7.375 2.3125q-3.109375 2.3125 -5.109375 5.921875q-2.0 3.609375 -2.984375 7.625q-0.96875 4.0 -0.96875 7.421875l-1.3125 0.25q0 -3.46875 0.921875 -7.921875q0.921875 -4.453125 3.078125 -8.578125q2.171875 -4.140625 5.84375 -6.84375q3.6875 -2.71875 9.28125 -2.71875q6.109375 0 9.15625 2.03125q3.0625 2.03125 4.109375 5.609375q1.046875 3.578125 1.046875 8.15625zm30.707245 34.390594q-4.3125 0 -6.5 -1.921875q-2.1875 -1.921875 -2.953125 -4.7812195q-0.765625 -2.875 -0.765625 -5.78125l0 -47.234375q2.375 0 5.109375 -1.0q2.734375 -1.0 4.328125 -2.15625l0 52.875q0 3.9530945 0.9375 5.2655945q0.953125 1.3125 3.21875 1.3125q2.46875 0 4.765625 -2.203125q2.296875 -2.2187195 3.71875 -5.0155945l1.734375 1.109375q-2.109375 4.2655945 -5.359375 6.9062195q-3.234375 2.625 -8.234375 2.625zm-17.265625 -47.12497l0 -2.0625l27.75 0l0 2.0625l-27.75 0zm37.431305 47.43747l0 -15.3749695l2.109375 0q0.578125 3.578125 2.875 6.59375q2.296875 2.9999695 5.65625 4.7968445q3.375 1.78125 7.265625 1.78125q2.953125 0 5.578125 -0.9375q2.640625 -0.953125 4.265625 -2.921875q1.640625 -1.9843445 1.640625 -5.0468445q0 -3.3125 -2.03125 -5.265625q-2.015625 -1.953125 -5.1875 -3.1875q-3.15625 -1.234375 -6.734375 -2.421875q-3.578125 -1.1875 -6.75 -2.859375q-3.15625 -1.6875 -5.1875 -4.5q-2.015625 -2.828125 -2.015625 -7.40625q0 -3.375 1.515625 -6.5q1.53125 -3.140625 4.71875 -5.171875q3.1875 -2.03125 8.140625 -2.03125q3.578125 0 6.578125 1.171875q3.0 1.15625 5.265625 3.09375l3.953125 -4.3125l1.84375 0l0 14.6875l-2.109375 0q-0.265625 -3.09375 -2.296875 -5.9375q-2.015625 -2.84375 -5.390625 -4.6875q-3.375 -1.84375 -7.734375 -1.84375q-2.484375 0 -4.59375 0.875q-2.09375 0.859375 -3.34375 2.5q-1.234375 1.625 -1.234375 3.890625q0 2.890625 2.109375 4.71875q2.109375 1.8125 5.453125 3.125q3.34375 1.3125 7.078125 2.609375q3.75 1.28125 7.09375 3.109375q3.34375 1.8125 5.4375 4.640625q2.109375 2.8125 2.109375 7.171875q0 4.6875 -2.296875 8.21875q-2.28125 3.5312195 -6.1875 5.4843445q-3.890625 1.9375 -8.84375 1.9375q-3.625 0 -6.890625 -1.25q-3.265625 -1.265625 -5.796875 -3.4375l-4.265625 4.6875l-1.796875 0zm118.34848 -80.046844l0 2.0625l-9.484375 0l0 74.890594l9.484375 0l0 2.046875l-30.03125 0l0 -2.046875l10.546875 0l0 -35.87497l-34.71881 0l0 35.87497l10.484375 0l0 2.046875l-30.015625 0l0 -2.046875l9.484375 0l0 -74.890594l-9.484375 0l0 -2.0625l30.015625 0l0 2.0625l-10.484375 0l0 36.90625l34.71881 0l0 -36.90625l-10.546875 0l0 -2.0625l30.03125 0zm32.588074 80.046844q-6.6875 0 -12.109375 -3.015625q-5.421875 -3.03125 -8.609375 -8.6874695q-3.1875 -5.671875 -3.1875 -13.5625q0 -7.90625 3.0 -13.53125q3.0 -5.640625 8.265625 -8.671875q5.265625 -3.03125 12.015625 -3.03125q7.640625 0 12.1875 3.03125q4.5625 3.03125 6.578125 7.984375q2.03125 4.9375 2.03125 10.6875l-36.96875 0l0 -2.0625l25.8125 0q0 -2.625 -0.296875 -5.671875q-0.28125 -3.0625 -1.203125 -5.765625q-0.921875 -2.71875 -2.875 -4.453125q-1.953125 -1.75 -5.265625 -1.75q-3.796875 0 -6.21875 1.90625q-2.421875 1.890625 -3.765625 5.1875q-1.34375 3.28125 -1.90625 7.453125q-0.546875 4.15625 -0.546875 8.6875q0 4.515625 0.609375 8.65625q0.609375 4.140625 2.109375 7.375q1.5 3.2343445 4.15625 5.1093445q2.671875 1.859375 6.765625 1.859375q7.0625 0 11.5625 -3.546875q4.5 -3.5624695 6.453125 -8.9843445l2.375 0q-2.0625 6.375 -7.21875 10.5937195q-5.15625 4.203125 -13.75 4.203125zm48.092407 -80.046844l0 76.953094l8.953125 0l0 2.046875l-27.390625 0l0 -2.046875l9.0 0l0 -74.890594l-9.0 0l0 -2.0625l18.4375 0zm16.63678 105.328094l0 -2.046875l6.90625 0l0 -70.671844l-6.90625 0l0 -2.0625l16.328125 0l0 15.375q1.734375 -7.53125 6.125 -11.921875q4.40625 -4.40625 10.78125 -4.40625q5.53125 0 10.46875 3.015625q4.953125 3.0 8.0625 8.640625q3.109375 5.625 3.109375 13.53125q0 7.890625 -3.109375 13.5625q-3.109375 5.6562195 -8.0625 8.6874695q-4.9375 3.015625 -10.46875 3.015625q-6.375 0 -10.78125 -4.4375q-4.390625 -4.4530945 -6.125 -11.9374695l0 39.609344l6.84375 0l0 2.046875l-23.171875 0zm31.328125 -28.125q4.109375 0 6.953125 -2.65625q2.84375 -2.6562195 4.3125 -7.6874695q1.484375 -5.03125 1.484375 -12.078125q0 -7.0625 -1.484375 -12.0625q-1.46875 -5.0 -4.3125 -7.640625q-2.84375 -2.640625 -6.953125 -2.640625q-3.9375 0 -7.359375 2.609375q-3.421875 2.609375 -5.53125 7.625q-2.109375 5.0 -2.109375 12.109375q0 7.109375 2.109375 12.140625q2.109375 5.015625 5.53125 7.6562195q3.421875 2.625 7.359375 2.625z" fill-rule="nonzero"/><path fill="#ffffff" d="m334.9108 450.30176l0 0c0 -2.61792 5.266815 -4.740143 11.763763 -4.740143l0 0c6.4969482 0 11.763794 2.122223 11.763794 4.740143l0 0c0 2.61792 -5.2668457 4.7401733 -11.763794 4.7401733l0 0c-6.4969482 0 -11.763763 -2.1222534 -11.763763 -4.7401733z" fill-rule="evenodd"/><path stroke="#000000" stroke-width="4.0" stroke-linejoin="round" stroke-linecap="butt" d="m334.9108 450.30176l0 0c0 -2.61792 5.266815 -4.740143 11.763763 -4.740143l0 0c6.4969482 0 11.763794 2.122223 11.763794 4.740143l0 0c0 2.61792 -5.2668457 4.7401733 -11.763794 4.7401733l0 0c-6.4969482 0 -11.763763 -2.1222534 -11.763763 -4.7401733z" fill-rule="evenodd"/></g></svg>